
<svg viewBox="0 0 217 44" xmlns="http://www.w3.org/2000/svg">
  <path d="M53.145 12.576c0-.285.231-.541.551-.541h6.603c3.562 0 6.487 2.847 6.487 6.293s-2.925 6.406-6.458 6.406H56.13v6.692c0 .285-.261.542-.551.542h-1.883a.545.545 0 0 1-.55-.542v-18.85zm6.98 9.367c1.998 0 3.677-1.595 3.677-3.644 0-1.936-1.679-3.417-3.678-3.417h-3.997v7.061h3.997zm9.643-9.367c0-.285.231-.541.55-.541h11.584c.32 0 .551.256.551.541v1.595a.545.545 0 0 1-.55.541H72.75v5.808h7.734c.29 0 .55.256.55.541v1.595c0 .314-.26.541-.55.541H72.75v6.122h9.152c.32 0 .551.256.551.541v1.566a.545.545 0 0 1-.55.542H70.318a.545.545 0 0 1-.55-.542v-18.85zm15.495 18.648l8.891-19.162c.087-.172.347-.314.492-.314h.29c.145 0 .406.142.492.314l8.832 19.162c.175.37-.058.74-.491.74h-1.824a.677.677 0 0 1-.667-.428l-1.794-3.901h-9.47c-.577 1.31-1.187 2.59-1.765 3.9a.73.73 0 0 1-.666.428H85.76c-.435 0-.666-.37-.492-.74h-.004zm13.12-6.035l-3.563-7.801h-.144l-3.533 7.801h7.24zm17.173-13.44c2.925 0 5.04.97 7.009 2.65.26.226.26.57.029.797l-1.273 1.28c-.204.257-.463.257-.723 0-1.362-1.167-3.216-1.906-5.01-1.906-4.142 0-7.269 3.417-7.269 7.402 0 3.985 3.156 7.374 7.298 7.374 2.114 0 3.592-.827 4.981-1.88.26-.199.521-.172.695-.03l1.333 1.281c.231.199.174.57-.03.769-1.969 1.88-4.459 2.762-7.038 2.762-5.791 0-10.455-4.526-10.455-10.22 0-5.694 4.664-10.278 10.455-10.278h-.002zm11.178.827c0-.285.231-.541.551-.541h11.583c.32 0 .551.256.551.541v1.595a.545.545 0 0 1-.551.541h-9.152v5.808h7.734c.29 0 .55.256.55.541v1.595c0 .314-.26.541-.55.541h-7.734v6.122h9.152c.32 0 .551.256.551.541v1.566a.545.545 0 0 1-.551.542h-11.583a.545.545 0 0 1-.551-.542v-18.85z" fill="#F19030"/>
  <path d="M158.616 11.75c2.925 0 5.039.969 7.008 2.648.261.227.261.57.03.798l-1.274 1.28c-.204.257-.462.257-.725 0-1.362-1.167-3.215-1.906-5.01-1.906-4.142 0-7.269 3.417-7.269 7.402 0 3.985 3.157 7.374 7.299 7.374 2.114 0 3.591-.827 4.98-1.88.261-.199.521-.172.696-.03l1.332 1.281c.231.199.175.57-.029.769-1.969 1.88-4.46 2.762-7.038 2.762-5.792 0-10.455-4.526-10.455-10.22 0-5.694 4.663-10.278 10.455-10.278zm19.519 0c5.791 0 10.425 4.584 10.425 10.278 0 5.694-4.634 10.22-10.425 10.22-5.792 0-10.397-4.526-10.397-10.22 0-5.694 4.605-10.278 10.397-10.278zm0 17.651c4.142 0 7.529-3.303 7.529-7.373s-3.387-7.432-7.529-7.432c-4.143 0-7.501 3.389-7.501 7.432 0 4.043 3.388 7.373 7.501 7.373zm13.987-16.825c0-.285.261-.541.551-.541h1.912c.29 0 .551.256.551.541v18.848a.565.565 0 0 1-.551.541h-1.912a.565.565 0 0 1-.551-.541V12.576zm8.053-.314c0-.285.261-.513.551-.513h.723l12.569 14.293h.03V12.576c0-.285.231-.541.55-.541h1.854c.29 0 .55.256.55.541v19.162c0 .285-.26.512-.55.512h-.753L203.13 17.56h-.029v13.864a.545.545 0 0 1-.551.541h-1.824a.565.565 0 0 1-.551-.541V12.262zM21.869.5C9.79.5 0 10.126 0 21.999s9.791 21.499 21.869 21.499c12.077 0 21.868-9.626 21.868-21.5C43.737 10.127 33.948.5 21.87.5zm0 2.212c10.817 0 19.62 8.652 19.62 19.29 0 1.608-.201 3.169-.58 4.664-1.522 2.212-5.594 4.856-7.264 5.745-1.296.69-3.016.559-4.487-.345-1.199-.736-2.606-1.114-4.187-1.123h-.027c-1.031 0-2.115.378-3.064.949-1.022-.613-2.094-.95-3.06-.95h-.026c-1.582.01-2.991.388-4.188 1.124-1.47.902-3.19 1.035-4.486.345-1.702-.907-5.846-3.598-7.299-5.792a18.92 18.92 0 0 1-.569-4.616C2.25 11.364 11.051 2.712 21.87 2.712zM3.854 29.633c1.92 1.686 4.356 3.226 5.64 3.91a5.216 5.216 0 0 0 2.457.592c1.126 0 2.295-.33 3.35-.978.989-.608 2.167-.92 3.502-.927.584 0 1.253.18 1.919.504-.675.592-1.196 1.265-1.455 1.9-.34.842-.21 1.624.358 2.143.576.526 1.627.953 3.377-.007a8.794 8.794 0 0 0 1.232-.835c1.022.742 3.653 2.669 5.128 3.892-.684.278-1.389.523-2.112.724l-3.109-2.4a.471.471 0 0 0-.657.078c-.158.2-.124.49.08.646l2.537 1.96c-.725.159-1.466.277-2.218.353l-1.917-1.42a.475.475 0 0 0-.657.092.457.457 0 0 0 .093.646l1.047.775c-.19.005-.383.01-.576.01-8.062 0-15.003-4.806-18.016-11.656l-.003-.002zm26.816 9.603c-1.693-1.481-5.894-4.508-6.087-4.646a.664.664 0 0 0-.843.055c-.469.446-2.39 1.95-3.222 1.19-.059-.054-.238-.219-.032-.724.515-1.274 2.713-2.88 4.457-2.88h.019c1.334.008 2.512.32 3.5.926 1.87 1.15 4.095 1.297 5.806.386 1.269-.678 3.687-2.206 5.61-3.892-1.833 4.154-5.112 7.554-9.209 9.585z" fill="#16A2B3"/>
  <path d="M21.932 25.51c10.48 0 13.44-5.944 13.562-6.195a.64.64 0 0 0-.315-.858.66.66 0 0 0-.873.31c-.025.053-2.716 5.453-12.374 5.453-9.657 0-12.263-5.23-12.374-5.456a.66.66 0 0 0-.873-.307.64.64 0 0 0-.315.858c.12.254 3.08 6.195 13.562 6.195zm-6.358-12.317c1.185-.103 2.07-1.05 1.976-2.114-.096-1.065-1.133-1.847-2.318-1.747-1.185.103-2.071 1.05-1.976 2.114.095 1.065 1.133 1.847 2.318 1.747zm12.592 0c1.185.103 2.223-.681 2.318-1.746.095-1.065-.791-2.012-1.976-2.114-1.185-.103-2.223.681-2.318 1.746-.095 1.065.79 2.012 1.976 2.114z" fill="#16A2B3"/>
</svg>