<svg viewBox="0 0 320 156" xmlns="http://www.w3.org/2000/svg"><path d="m103.04 20.45c-.21-.28-.17-.69.14-.92l6.72-4.95c3.43-2.53 8.3-1.81 10.79 1.56 2.55 3.46 1.81 8.35-1.6 10.86l-2.93 2.16 4.83 6.55c.21.28.14.72-.14.92l-3.29 2.42c-.31.23-.71.14-.92-.14zm12.77 2.68c1.2-.88 1.5-2.57.58-3.83-.86-1.17-2.52-1.32-3.72-.44l-2.65 1.95 3.14 4.27z" fill="#f19030"/><path d="m125.5 7.58c-.1-.33.07-.71.43-.82l13.69-4.26c.36-.11.72.1.82.43l1.12 3.61c.1.33-.07.71-.43.82l-9.16 2.85 1.28 4.1 7.54-2.35c.33-.1.72.1.82.43l1.12 3.61c.11.36-.1.72-.43.82l-7.54 2.35 1.39 4.47 9.16-2.85c.36-.11.72.1.82.43l1.12 3.61c.1.33-.07.71-.43.82l-13.69 4.26c-.36.11-.72-.1-.82-.43z" fill="#f19030"/><path d="m150.71 23.69 10.98-23.25c.11-.21.35-.38.59-.38h.35c.24 0 .48.18.59.39l10.71 23.38c.21.45-.07.9-.59.9l-3.84-.02c-.62 0-.9-.21-1.21-.87l-1.23-2.74-9.42-.06-1.26 2.76c-.18.41-.56.83-1.25.82l-3.81-.02c-.52 0-.79-.46-.58-.9zm14.28-7.33-2.6-5.73h-.03l-2.63 5.7 5.27.03z" fill="#f19030"/><path d="m194.34 5.7c3.29 1.09 5.38 2.92 6.94 5.7.21.36.08.76-.27.93l-3.45 1.81c-.31.15-.67.03-.82-.27-.86-1.49-2.27-2.61-3.88-3.15-3.72-1.23-7.47.95-8.69 4.64-1.21 3.65.55 7.59 4.26 8.82 1.54.51 3.41.51 4.93-.12.3-.12.72.02.84.32l1.66 3.58c.15.31-.02.72-.33.88-2.96 1.43-6.12 1.51-9.05.54-6.58-2.18-10.14-9.16-7.96-15.74s9.23-10.11 15.8-7.93z" fill="#f19030"/><path d="m212.02 15.13c.2-.28.6-.38.92-.16l11.73 8.25c.31.22.36.63.16.92l-2.17 3.09c-.2.28-.61.38-.92.16l-7.85-5.52-2.47 3.51 6.46 4.54c.28.2.36.63.16.92l-2.17 3.09c-.22.31-.63.36-.92.16l-6.46-4.54-2.69 3.83 7.85 5.52c.31.22.36.63.16.92l-2.17 3.09c-.2.28-.61.38-.92.16l-11.73-8.25c-.31-.22-.36-.63-.16-.92l13.19-18.76z" fill="#f19030"/><g fill="#16a2b3"><path d="m54.75 153.24c-30.19 0-54.75-24.56-54.75-54.75s24.56-54.75 54.75-54.75c13.66 0 26.75 5.06 36.85 14.25 1.21 1.1 1.29 2.97.2 4.17-1.1 1.21-2.97 1.29-4.17.2-9.01-8.2-20.68-12.71-32.87-12.71-26.93 0-48.85 21.91-48.85 48.85s21.91 48.85 48.85 48.85c12.19 0 23.86-4.52 32.87-12.71 1.21-1.1 3.08-1.01 4.17.2 1.1 1.21 1.01 3.08-.2 4.17-10.1 9.19-23.18 14.25-36.85 14.25z"/><path d="m316.69 149.98c-.89 0-1.76-.4-2.35-1.16l-48.45-65.72c-.99-1.29-.75-3.15.54-4.14s3.15-.75 4.14.54l48.46 65.7c.99 1.29.74 3.17-.55 4.16-.54.41-1.17.61-1.8.61z"/><path d="m240.84 149.97c-1.77 0-3.2-1.43-3.2-3.2v-96.61c0-1.77 1.43-3.2 3.2-3.2s3.2 1.43 3.2 3.2v96.61c0 1.77-1.43 3.2-3.2 3.2z"/><path d="m316.8 149.97c-1.77 0-3.2-1.43-3.2-3.2v-96.61c0-1.77 1.43-3.2 3.2-3.2s3.2 1.43 3.2 3.2v96.61c0 1.77-1.43 3.2-3.2 3.2z"/><path d="m162.33 41.04c-31.73 0-57.45 25.72-57.45 57.45s25.72 57.45 57.45 57.45 57.45-25.72 57.45-57.45-25.72-57.45-57.45-57.45zm0 5.91c28.42 0 51.54 23.12 51.54 51.54 0 4.3-.53 8.47-1.53 12.46-4 5.91-14.7 12.98-19.09 15.35-3.41 1.84-7.92 1.49-11.78-.92-3.15-1.97-6.85-2.98-11-3h-.07c-2.71 0-5.55 1.01-8.05 2.53-2.68-1.64-5.5-2.53-8.04-2.53h-.07c-4.15.03-7.86 1.04-11 3-3.86 2.41-8.38 2.77-11.78.92-4.47-2.42-15.36-9.61-19.17-15.48-.97-3.95-1.5-8.09-1.5-12.34 0-28.42 23.12-51.54 51.54-51.54zm-47.32 71.94c5.04 4.5 11.44 8.62 14.81 10.45 1.96 1.06 4.17 1.58 6.45 1.58 2.96 0 6.03-.88 8.8-2.61 2.6-1.62 5.69-2.46 9.2-2.48 1.54 0 3.29.48 5.04 1.35-1.77 1.59-3.15 3.38-3.82 5.07-.89 2.25-.55 4.34.94 5.73 1.51 1.41 4.27 2.55 8.87-.02 1.3-.73 2.45-1.59 3.24-2.23 2.69 1.99 9.59 7.13 13.47 10.4-1.8.75-3.65 1.4-5.55 1.94l-8.17-6.41c-.53-.42-1.31-.33-1.73.21s-.33 1.31.21 1.73l6.67 5.24c-1.91.42-3.85.74-5.83.94l-5.04-3.79c-.54-.41-1.32-.3-1.72.24-.41.54-.3 1.31.24 1.72l2.75 2.07c-.5.01-1.01.02-1.51.02-21.18 0-39.41-12.84-47.33-31.14zm70.44 25.65c-4.45-3.96-15.48-12.05-15.99-12.42-.68-.5-1.61-.43-2.21.15-1.23 1.19-6.28 5.21-8.46 3.18-.15-.14-.62-.58-.09-1.93 1.35-3.4 7.13-7.69 11.71-7.69h.05c3.51.02 6.6.86 9.2 2.48 4.91 3.07 10.76 3.46 15.25 1.03 3.34-1.81 9.68-5.89 14.74-10.4-4.82 11.1-13.43 20.19-24.19 25.61z"/><path d="m162.5 107.87c27.53 0 35.31-15.88 35.62-16.56.4-.86.03-1.89-.83-2.29s-1.89-.03-2.29.83c-.07.15-7.14 14.57-32.5 14.57s-32.22-13.98-32.51-14.58c-.41-.86-1.43-1.23-2.29-.82-.86.4-1.23 1.43-.83 2.29.32.68 8.09 16.56 35.62 16.56z"/><path d="m145.79 74.96c3.11-.27 5.44-2.8 5.19-5.65s-2.98-4.94-6.09-4.66c-3.11.27-5.44 2.8-5.19 5.65s2.98 4.94 6.09 4.66z"/><path d="m178.87 74.96c3.11.27 5.84-1.82 6.09-4.66.25-2.85-2.08-5.38-5.19-5.65s-5.84 1.82-6.09 4.66c-.25 2.85 2.08 5.38 5.19 5.65z"/></g></svg>