<svg viewBox="0 0 512 512" xmlns="http://www.w3.org/2000/svg"><circle cx="256" cy="256" fill="#fff" r="190"/><path d="m256 56c-110.47 0-200 89.55-200 200s89.54 200 200 200 200-89.55 200-200.01-89.53-199.99-199.99-199.99zm0 20.58c98.93 0 179.44 80.49 179.44 179.45 0 14.96-1.84 29.48-5.3 43.39-13.92 20.58-51.16 45.17-66.43 53.44-11.85 6.42-27.58 5.2-41.04-3.21-10.97-6.85-23.83-10.36-38.29-10.45h-.25c-9.43 0-19.34 3.52-28.02 8.83-9.35-5.7-19.15-8.84-27.99-8.84h-.24c-14.47.09-27.35 3.61-38.3 10.46-13.44 8.39-29.17 9.63-41.03 3.21-15.57-8.44-53.47-33.47-66.75-53.88-3.46-14.04-5.21-28.46-5.2-42.94-.02-98.97 80.47-179.46 179.42-179.46zm-164.75 250.44c17.56 15.68 39.84 30.01 51.58 36.37 6.93 3.68 14.65 5.57 22.47 5.51 10.3 0 20.99-3.07 30.64-9.1 9.04-5.66 19.82-8.56 32.03-8.62 5.34 0 11.46 1.67 17.55 4.69-6.17 5.51-10.94 11.77-13.31 17.68-3.11 7.83-1.92 15.11 3.27 19.94 5.27 4.89 14.88 8.87 30.88-.07 3.96-2.26 7.73-4.86 11.27-7.77 9.35 6.9 33.41 24.83 46.9 36.21-6.26 2.59-12.7 4.87-19.32 6.74l-28.43-22.33c-1.86-1.47-4.54-1.15-6.01.73-1.45 1.86-1.13 4.56.73 6.01l23.2 18.23c-6.63 1.48-13.41 2.58-20.28 3.28l-17.53-13.21c-1.9-1.42-4.57-1.04-6.01.86-1.4 1.87-1.05 4.53.78 5.96.02.02.04.03.07.05l9.58 7.21c-1.74.05-3.5.09-5.27.09-73.73 0-137.21-44.71-164.77-108.43 0 0-.03-.02-.03-.02zm245.24 89.33c-15.48-13.78-53.9-41.94-55.67-43.22-2.36-1.73-5.59-1.51-7.71.51-4.29 4.15-21.86 18.14-29.47 11.07-.54-.5-2.18-2.04-.29-6.74 4.71-11.85 24.81-26.79 40.76-26.79h.17c12.2.07 22.97 2.98 32.01 8.61 17.1 10.7 37.45 12.07 53.1 3.59 11.61-6.31 33.72-20.52 51.31-36.21-16.76 38.64-46.75 70.27-84.22 89.17zm-79.91-127.69c95.85 0 122.92-55.3 124.03-57.63 1.39-2.97.14-6.52-2.78-7.93-.03-.02-.07-.03-.1-.05-2.99-1.42-6.54-.14-7.98 2.88-.23.49-24.84 50.73-113.17 50.73s-112.15-48.65-113.17-50.76c-1.45-3.01-5-4.28-7.98-2.86-2.95 1.35-4.26 4.88-2.93 7.87.02.04.03.07.05.11 1.1 2.36 28.17 57.63 124.03 57.63zm-58.15-114.58c10.84-.96 18.93-9.77 18.07-19.67-.88-9.91-10.36-17.18-21.2-16.25-10.84.96-18.94 9.77-18.07 19.67.87 9.91 10.36 17.18 21.2 16.25zm115.16 0c10.84.96 20.33-6.34 21.2-16.24.87-9.91-7.23-18.72-18.07-19.67-10.84-.96-20.33 6.34-21.2 16.24-.87 9.91 7.23 18.72 18.07 19.67z" fill="#16a2b3"/></svg>